<svg xmlns="http://www.w3.org/2000/svg" xmlns:xlink="http://www.w3.org/1999/xlink" width="500" zoomAndPan="magnify" viewBox="0 0 375 374.999991" height="500" preserveAspectRatio="xMidYMid meet" version="1.0"><defs><clipPath id="id1"><path d="M 87 55.273438 L 289 55.273438 L 289 294 L 87 294 Z M 87 55.273438 " clip-rule="nonzero"/></clipPath><clipPath id="id2"><path d="M 112.5 80.746094 L 214 80.746094 L 214 155 L 112.5 155 Z M 112.5 80.746094 " clip-rule="nonzero"/></clipPath><clipPath id="id3"><path d="M 112.5 135 L 162 135 L 162 169 L 112.5 169 Z M 112.5 135 " clip-rule="nonzero"/></clipPath><clipPath id="id4"><path d="M 112.5 149 L 161 149 L 161 183 L 112.5 183 Z M 112.5 149 " clip-rule="nonzero"/></clipPath><clipPath id="id5"><path d="M 166 125 L 262.5 125 L 262.5 222 L 166 222 Z M 166 125 " clip-rule="nonzero"/></clipPath></defs><g clip-path="url(#id1)"><path fill="#2753bf" d="M 109.28125 57.714844 C 113.527344 56.046875 118.167969 55.832031 122.671875 55.8125 C 171.140625 55.878906 219.585938 55.765625 268.054688 55.855469 C 276.871094 55.269531 285.21875 61.679688 287.726562 69.996094 C 288.78125 74.832031 288.382812 79.835938 288.453125 84.765625 C 288.359375 130.984375 288.476562 177.230469 288.40625 223.445312 C 289.039062 234.339844 279.003906 244.371094 268.125 243.710938 C 219.65625 243.734375 171.164062 243.757812 122.695312 243.691406 C 116.832031 243.546875 110.292969 244.300781 106.070312 248.855469 C 100.207031 254.230469 100.886719 263.203125 102.199219 270.34375 C 104.777344 277.957031 112.894531 281.027344 120.277344 281.546875 C 127.476562 281.570312 127.5 293.175781 120.535156 293.785156 C 106.511719 294.421875 93.683594 283.898438 89.511719 270.816406 C 85.902344 262.433594 88.480469 253.273438 88.316406 244.515625 C 88.269531 192.027344 88.226562 139.539062 88.316406 87.074219 C 88.273438 74.128906 97.441406 62.269531 109.28125 57.714844 Z M 109.28125 57.714844 " fill-opacity="1" fill-rule="nonzero"/></g><path fill="#2753bf" d="M 138.40625 261.988281 C 138.40625 255.109375 149.097656 254.097656 150.550781 260.742188 C 151.183594 274.621094 150.738281 288.570312 150.855469 302.472656 C 158.121094 299.253906 164.78125 293.757812 173.058594 293.691406 C 177.609375 297.492188 183.046875 299.933594 188.398438 302.40625 C 188.5625 288.546875 187.90625 274.667969 188.628906 260.835938 C 189.710938 253.976562 201.011719 255.128906 200.707031 262.125 C 201.105469 277.367188 200.730469 292.632812 200.894531 307.878906 C 200.871094 311.726562 201.292969 317.222656 196.578125 318.585938 C 184.597656 319.433594 174.585938 302.570312 162.628906 310.460938 C 157.046875 313.136719 151.816406 316.613281 145.90625 318.566406 C 141.992188 320.023438 137.9375 316.097656 138.382812 312.152344 C 138.265625 295.429688 138.289062 278.683594 138.40625 261.988281 Z M 138.40625 261.988281 " fill-opacity="1" fill-rule="nonzero"/><path fill="#2753bf" d="M 214.917969 283.5 L 216.230469 281.902344 C 235.8125 280.609375 255.535156 281.480469 275.136719 281.363281 C 282.707031 280.003906 284.867188 292.074219 277.527344 293.527344 C 258.019531 294.042969 238.4375 293.996094 218.910156 293.597656 C 214.003906 293.785156 211.542969 286.808594 214.917969 283.5 Z M 214.917969 283.5 " fill-opacity="1" fill-rule="nonzero"/><g clip-path="url(#id2)"><path fill="#c3fffc" d="M 162.886719 149.84375 C 137.589844 149.84375 116.992188 138.207031 116.992188 123.890625 C 117.007812 123.742188 117.007812 123.597656 116.992188 123.449219 C 124.808594 134.027344 142.464844 141.539062 162.957031 141.539062 C 165.351562 141.539062 167.765625 141.433594 170.140625 141.222656 C 170.425781 141.1875 170.691406 141.105469 170.945312 140.96875 C 171.195312 140.828125 171.410156 140.648438 171.59375 140.429688 C 171.773438 140.207031 171.90625 139.960938 171.992188 139.6875 C 172.078125 139.414062 172.105469 139.132812 172.082031 138.847656 C 172.058594 138.5625 171.980469 138.292969 171.851562 138.035156 C 171.722656 137.78125 171.550781 137.558594 171.335938 137.371094 C 171.121094 137.183594 170.875 137.042969 170.605469 136.949219 C 170.335938 136.855469 170.058594 136.816406 169.773438 136.832031 C 167.519531 137.027344 165.230469 137.132812 162.957031 137.132812 C 137.589844 137.132812 116.992188 125.476562 116.992188 111.160156 C 116.992188 96.84375 137.589844 85.207031 162.886719 85.207031 C 188.1875 85.207031 208.785156 96.792969 208.785156 111.160156 C 208.765625 113.753906 208.140625 116.183594 206.902344 118.460938 C 206.765625 118.71875 206.683594 118.992188 206.652344 119.285156 C 206.625 119.574219 206.65625 119.863281 206.742188 120.140625 C 206.828125 120.421875 206.960938 120.671875 207.148438 120.898438 C 207.335938 121.125 207.558594 121.304688 207.816406 121.441406 C 208.074219 121.578125 208.347656 121.660156 208.640625 121.6875 C 208.929688 121.714844 209.214844 121.6875 209.492188 121.601562 C 209.773438 121.515625 210.023438 121.378906 210.25 121.191406 C 210.476562 121.003906 210.65625 120.78125 210.792969 120.523438 C 212.367188 117.601562 213.167969 114.480469 213.1875 111.160156 C 213.1875 94.410156 190.617188 80.800781 162.886719 80.800781 C 135.160156 80.800781 112.605469 94.410156 112.605469 111.160156 C 112.628906 113.101562 112.925781 115 113.5 116.855469 C 114.070312 118.707031 114.894531 120.441406 115.96875 122.058594 C 115.640625 121.832031 115.28125 121.707031 114.882812 121.683594 C 114.484375 121.660156 114.109375 121.742188 113.757812 121.925781 C 113.40625 122.109375 113.128906 122.371094 112.921875 122.710938 C 112.714844 123.054688 112.609375 123.421875 112.605469 123.820312 C 112.605469 140.570312 135.160156 154.179688 162.886719 154.179688 C 163.179688 154.179688 163.460938 154.125 163.730469 154.011719 C 164 153.902344 164.238281 153.742188 164.445312 153.535156 C 164.648438 153.328125 164.808594 153.089844 164.921875 152.820312 C 165.03125 152.550781 165.089844 152.269531 165.089844 151.976562 C 165.089844 151.683594 165.03125 151.402344 164.921875 151.132812 C 164.808594 150.863281 164.648438 150.625 164.445312 150.417969 C 164.238281 150.210938 164 150.050781 163.730469 149.941406 C 163.460938 149.828125 163.179688 149.773438 162.886719 149.773438 Z M 162.886719 149.84375 " fill-opacity="1" fill-rule="nonzero"/></g><g clip-path="url(#id3)"><path fill="#c3fffc" d="M 159.03125 163.789062 C 135.457031 162.714844 116.992188 151.34375 116.992188 137.960938 C 116.992188 137.667969 116.933594 137.386719 116.824219 137.117188 C 116.710938 136.847656 116.554688 136.609375 116.347656 136.402344 C 116.140625 136.195312 115.902344 136.035156 115.632812 135.925781 C 115.363281 135.8125 115.082031 135.757812 114.789062 135.757812 C 114.5 135.757812 114.21875 135.8125 113.949219 135.925781 C 113.679688 136.035156 113.441406 136.195312 113.234375 136.402344 C 113.027344 136.609375 112.867188 136.847656 112.757812 137.117188 C 112.644531 137.386719 112.589844 137.667969 112.589844 137.960938 C 112.589844 153.96875 132.449219 166.980469 158.804688 168.25 L 158.910156 168.25 C 159.199219 168.257812 159.484375 168.207031 159.753906 168.101562 C 160.027344 167.996094 160.269531 167.84375 160.480469 167.640625 C 160.691406 167.441406 160.855469 167.207031 160.972656 166.9375 C 161.089844 166.671875 161.152344 166.390625 161.160156 166.097656 C 161.167969 165.808594 161.121094 165.523438 161.015625 165.253906 C 160.910156 164.980469 160.753906 164.738281 160.554688 164.527344 C 160.351562 164.3125 160.121094 164.148438 159.851562 164.03125 C 159.585938 163.914062 159.304688 163.847656 159.015625 163.84375 Z M 159.03125 163.789062 " fill-opacity="1" fill-rule="nonzero"/></g><g clip-path="url(#id4)"><path fill="#c3fffc" d="M 158.75 177.894531 C 135.335938 176.714844 116.992188 165.339844 116.992188 152.046875 C 116.992188 151.753906 116.933594 151.472656 116.824219 151.203125 C 116.710938 150.933594 116.554688 150.695312 116.347656 150.488281 C 116.140625 150.28125 115.902344 150.121094 115.632812 150.011719 C 115.363281 149.898438 115.082031 149.84375 114.789062 149.84375 C 114.5 149.84375 114.21875 149.898438 113.949219 150.011719 C 113.679688 150.121094 113.441406 150.28125 113.234375 150.488281 C 113.027344 150.695312 112.867188 150.933594 112.757812 151.203125 C 112.644531 151.472656 112.589844 151.753906 112.589844 152.046875 C 112.589844 167.914062 132.324219 180.960938 158.503906 182.320312 L 158.609375 182.320312 C 158.902344 182.328125 159.183594 182.277344 159.457031 182.175781 C 159.726562 182.070312 159.96875 181.917969 160.183594 181.714844 C 160.394531 181.515625 160.558594 181.28125 160.679688 181.015625 C 160.796875 180.75 160.859375 180.46875 160.867188 180.175781 C 160.875 179.886719 160.828125 179.601562 160.726562 179.332031 C 160.621094 179.058594 160.46875 178.816406 160.269531 178.601562 C 160.070312 178.390625 159.835938 178.222656 159.570312 178.105469 C 159.304688 177.984375 159.023438 177.921875 158.734375 177.910156 Z M 158.75 177.894531 " fill-opacity="1" fill-rule="nonzero"/></g><path fill="#c3fffc" d="M 216.917969 193.761719 L 217.710938 193.761719 C 218.117188 193.78125 218.523438 193.761719 218.925781 193.699219 C 219.328125 193.640625 219.71875 193.542969 220.101562 193.402344 C 220.484375 193.265625 220.851562 193.09375 221.199219 192.882812 C 221.550781 192.675781 221.875 192.433594 222.179688 192.160156 C 222.480469 191.886719 222.753906 191.585938 222.996094 191.261719 C 223.238281 190.933594 223.449219 190.585938 223.625 190.21875 C 223.800781 189.851562 223.9375 189.472656 224.039062 189.074219 C 224.140625 188.679688 224.203125 188.28125 224.222656 187.875 L 224.222656 182.285156 C 224.222656 180.925781 222.832031 179.304688 220.402344 177.839844 L 216.882812 176.605469 Z M 216.917969 193.761719 " fill-opacity="1" fill-rule="nonzero"/><g clip-path="url(#id5)"><path fill="#c3fffc" d="M 214.191406 125.285156 C 212.613281 125.285156 211.039062 125.359375 209.46875 125.515625 C 207.898438 125.671875 206.339844 125.902344 204.792969 126.210938 C 203.246094 126.515625 201.71875 126.902344 200.207031 127.359375 C 198.699219 127.816406 197.214844 128.347656 195.757812 128.953125 C 194.300781 129.558594 192.875 130.234375 191.484375 130.976562 C 190.09375 131.722656 188.742188 132.535156 187.429688 133.410156 C 186.117188 134.289062 184.851562 135.230469 183.632812 136.230469 C 182.414062 137.234375 181.246094 138.292969 180.128906 139.410156 C 179.015625 140.527344 177.957031 141.695312 176.957031 142.917969 C 175.953125 144.140625 175.015625 145.40625 174.140625 146.71875 C 173.261719 148.035156 172.453125 149.386719 171.710938 150.78125 C 170.964844 152.175781 170.292969 153.601562 169.6875 155.058594 C 169.085938 156.519531 168.554688 158.007812 168.097656 159.519531 C 167.636719 161.03125 167.253906 162.5625 166.945312 164.109375 C 166.640625 165.660156 166.40625 167.222656 166.253906 168.792969 C 166.097656 170.367188 166.023438 171.941406 166.023438 173.523438 C 166.019531 175.101562 166.097656 176.675781 166.253906 178.25 C 166.40625 179.820312 166.636719 181.382812 166.945312 182.933594 C 167.253906 184.480469 167.636719 186.011719 168.09375 187.523438 C 168.550781 189.035156 169.082031 190.523438 169.6875 191.980469 C 170.289062 193.441406 170.964844 194.867188 171.707031 196.261719 C 172.449219 197.652344 173.261719 199.007812 174.136719 200.320312 C 175.015625 201.632812 175.953125 202.902344 176.953125 204.125 C 177.953125 205.34375 179.011719 206.515625 180.128906 207.632812 C 181.242188 208.75 182.410156 209.808594 183.628906 210.808594 C 184.851562 211.8125 186.117188 212.753906 187.425781 213.628906 C 188.738281 214.507812 190.089844 215.320312 191.480469 216.0625 C 192.875 216.808594 194.296875 217.484375 195.753906 218.089844 C 197.210938 218.691406 198.695312 219.222656 200.207031 219.683594 C 201.714844 220.140625 203.246094 220.523438 204.792969 220.832031 C 206.339844 221.140625 207.898438 221.371094 209.46875 221.527344 C 211.039062 221.683594 212.613281 221.761719 214.191406 221.761719 C 215.769531 221.757812 217.34375 221.683594 218.914062 221.527344 C 220.484375 221.371094 222.042969 221.140625 223.589844 220.832031 C 225.136719 220.523438 226.664062 220.136719 228.175781 219.679688 C 229.6875 219.21875 231.167969 218.6875 232.628906 218.082031 C 234.085938 217.476562 235.511719 216.804688 236.902344 216.058594 C 238.292969 215.3125 239.644531 214.5 240.957031 213.621094 C 242.269531 212.746094 243.535156 211.804688 244.753906 210.800781 C 245.972656 209.796875 247.140625 208.738281 248.257812 207.621094 C 249.371094 206.503906 250.429688 205.332031 251.429688 204.113281 C 252.429688 202.890625 253.371094 201.621094 254.246094 200.308594 C 255.121094 198.996094 255.933594 197.640625 256.675781 196.246094 C 257.417969 194.855469 258.09375 193.425781 258.695312 191.96875 C 259.300781 190.507812 259.832031 189.019531 260.289062 187.507812 C 260.746094 185.996094 261.128906 184.464844 261.433594 182.917969 C 261.742188 181.367188 261.972656 179.804688 262.128906 178.234375 C 262.28125 176.660156 262.359375 175.085938 262.359375 173.503906 C 262.355469 171.925781 262.277344 170.351562 262.121094 168.777344 C 261.964844 167.207031 261.730469 165.648438 261.421875 164.097656 C 261.113281 162.550781 260.730469 161.019531 260.269531 159.507812 C 259.8125 158 259.28125 156.511719 258.675781 155.054688 C 258.070312 153.597656 257.398438 152.171875 256.652344 150.777344 C 255.910156 149.386719 255.097656 148.035156 254.222656 146.722656 C 253.347656 145.410156 252.40625 144.140625 251.40625 142.921875 C 250.40625 141.699219 249.347656 140.53125 248.234375 139.417969 C 247.117188 138.300781 245.949219 137.242188 244.730469 136.238281 C 243.511719 135.238281 242.246094 134.296875 240.9375 133.421875 C 239.625 132.542969 238.273438 131.730469 236.882812 130.988281 C 235.492188 130.242188 234.070312 129.566406 232.613281 128.964844 C 231.15625 128.359375 229.671875 127.828125 228.164062 127.367188 C 226.65625 126.910156 225.128906 126.523438 223.582031 126.214844 C 222.035156 125.90625 220.476562 125.675781 218.910156 125.519531 C 217.339844 125.363281 215.765625 125.285156 214.191406 125.285156 Z M 214.191406 212.292969 C 212.921875 212.292969 211.65625 212.230469 210.394531 212.105469 C 209.128906 211.980469 207.878906 211.792969 206.632812 211.546875 C 205.390625 211.300781 204.160156 210.992188 202.945312 210.621094 C 201.734375 210.253906 200.539062 209.824219 199.367188 209.339844 C 198.195312 208.851562 197.050781 208.3125 195.929688 207.710938 C 194.8125 207.113281 193.726562 206.460938 192.671875 205.753906 C 191.617188 205.050781 190.597656 204.292969 189.617188 203.488281 C 188.636719 202.683594 187.699219 201.828125 186.800781 200.929688 C 185.90625 200.03125 185.054688 199.09375 184.25 198.109375 C 183.445312 197.128906 182.691406 196.109375 181.984375 195.054688 C 181.28125 193.996094 180.628906 192.910156 180.03125 191.789062 C 179.433594 190.667969 178.890625 189.519531 178.40625 188.347656 C 177.921875 187.175781 177.492188 185.980469 177.125 184.765625 C 176.757812 183.546875 176.449219 182.316406 176.203125 181.070312 C 175.953125 179.824219 175.769531 178.570312 175.644531 177.304688 C 175.519531 176.042969 175.457031 174.773438 175.457031 173.503906 C 175.457031 172.234375 175.519531 170.964844 175.644531 169.703125 C 175.769531 168.4375 175.953125 167.183594 176.203125 165.9375 C 176.449219 164.691406 176.757812 163.460938 177.125 162.246094 C 177.492188 161.027344 177.921875 159.835938 178.40625 158.660156 C 178.890625 157.488281 179.433594 156.339844 180.03125 155.21875 C 180.628906 154.097656 181.28125 153.011719 181.984375 151.953125 C 182.691406 150.898438 183.445312 149.878906 184.25 148.898438 C 185.054688 147.914062 185.90625 146.976562 186.800781 146.078125 C 187.699219 145.179688 188.636719 144.328125 189.617188 143.519531 C 190.597656 142.714844 191.617188 141.957031 192.671875 141.253906 C 193.726562 140.546875 194.8125 139.894531 195.929688 139.296875 C 197.050781 138.699219 198.195312 138.15625 199.367188 137.667969 C 200.539062 137.183594 201.734375 136.753906 202.945312 136.386719 C 204.160156 136.015625 205.390625 135.710938 206.632812 135.460938 C 207.878906 135.214844 209.128906 135.027344 210.394531 134.902344 C 211.65625 134.777344 212.921875 134.714844 214.191406 134.714844 C 215.457031 134.714844 216.722656 134.777344 217.984375 134.902344 C 219.25 135.027344 220.5 135.214844 221.746094 135.460938 C 222.988281 135.710938 224.21875 136.015625 225.433594 136.386719 C 226.648438 136.753906 227.839844 137.183594 229.011719 137.667969 C 230.183594 138.15625 231.328125 138.699219 232.449219 139.296875 C 233.566406 139.894531 234.652344 140.546875 235.707031 141.253906 C 236.761719 141.957031 237.78125 142.714844 238.761719 143.519531 C 239.742188 144.328125 240.679688 145.179688 241.578125 146.078125 C 242.472656 146.976562 243.324219 147.914062 244.128906 148.898438 C 244.933594 149.878906 245.6875 150.898438 246.394531 151.953125 C 247.097656 153.011719 247.75 154.097656 248.347656 155.21875 C 248.945312 156.339844 249.488281 157.488281 249.972656 158.660156 C 250.457031 159.835938 250.886719 161.027344 251.253906 162.246094 C 251.621094 163.460938 251.929688 164.691406 252.175781 165.9375 C 252.425781 167.183594 252.609375 168.4375 252.734375 169.703125 C 252.859375 170.964844 252.921875 172.234375 252.921875 173.503906 C 252.921875 174.773438 252.859375 176.042969 252.734375 177.304688 C 252.609375 178.570312 252.425781 179.824219 252.175781 181.070312 C 251.929688 182.316406 251.621094 183.546875 251.253906 184.765625 C 250.886719 185.980469 250.457031 187.175781 249.972656 188.347656 C 249.488281 189.519531 248.945312 190.667969 248.347656 191.789062 C 247.75 192.910156 247.097656 193.996094 246.394531 195.054688 C 245.6875 196.109375 244.933594 197.128906 244.128906 198.109375 C 243.324219 199.09375 242.472656 200.03125 241.578125 200.929688 C 240.679688 201.828125 239.742188 202.683594 238.761719 203.488281 C 237.78125 204.292969 236.761719 205.050781 235.707031 205.753906 C 234.652344 206.460938 233.566406 207.113281 232.449219 207.710938 C 231.328125 208.3125 230.183594 208.851562 229.011719 209.339844 C 227.839844 209.824219 226.648438 210.253906 225.433594 210.621094 C 224.21875 210.992188 222.988281 211.300781 221.746094 211.546875 C 220.5 211.792969 219.25 211.980469 217.984375 212.105469 C 216.722656 212.230469 215.457031 212.292969 214.191406 212.292969 Z M 214.191406 212.292969 " fill-opacity="1" fill-rule="nonzero"/></g><path fill="#c3fffc" d="M 204.15625 158.871094 L 204.15625 164.371094 C 204.15625 166.132812 206.125 167.652344 207.835938 168.671875 L 212.515625 170.347656 L 212.515625 152.980469 L 210.757812 152.980469 C 210.347656 152.957031 209.9375 152.972656 209.53125 153.03125 C 209.125 153.085938 208.726562 153.183594 208.339844 153.320312 C 207.953125 153.453125 207.582031 153.625 207.226562 153.832031 C 206.875 154.042969 206.542969 154.28125 206.238281 154.554688 C 205.929688 154.828125 205.652344 155.128906 205.40625 155.457031 C 205.160156 155.785156 204.945312 156.136719 204.765625 156.507812 C 204.589844 156.875 204.449219 157.261719 204.34375 157.65625 C 204.242188 158.054688 204.179688 158.460938 204.15625 158.871094 Z M 204.15625 158.871094 " fill-opacity="1" fill-rule="nonzero"/><path fill="#c3fffc" d="M 214.191406 139.105469 C 213.066406 139.105469 211.945312 139.160156 210.824219 139.273438 C 209.707031 139.382812 208.59375 139.546875 207.492188 139.765625 C 206.390625 139.988281 205.300781 140.257812 204.222656 140.585938 C 203.148438 140.914062 202.089844 141.292969 201.050781 141.722656 C 200.011719 142.152344 198.996094 142.636719 198.007812 143.164062 C 197.015625 143.695312 196.050781 144.273438 195.117188 144.898438 C 194.183594 145.527344 193.28125 146.195312 192.410156 146.910156 C 191.542969 147.625 190.710938 148.378906 189.914062 149.175781 C 189.121094 149.972656 188.363281 150.804688 187.652344 151.675781 C 186.9375 152.546875 186.269531 153.449219 185.644531 154.386719 C 185.019531 155.320312 184.441406 156.285156 183.914062 157.28125 C 183.382812 158.273438 182.902344 159.289062 182.472656 160.328125 C 182.042969 161.371094 181.664062 162.429688 181.335938 163.507812 C 181.011719 164.582031 180.738281 165.675781 180.519531 166.777344 C 180.300781 167.882812 180.136719 168.996094 180.023438 170.117188 C 179.914062 171.238281 179.859375 172.359375 179.859375 173.488281 C 179.859375 174.613281 179.914062 175.734375 180.023438 176.855469 C 180.136719 177.976562 180.300781 179.089844 180.519531 180.195312 C 180.738281 181.296875 181.011719 182.390625 181.335938 183.464844 C 181.664062 184.542969 182.042969 185.601562 182.472656 186.644531 C 182.902344 187.683594 183.382812 188.699219 183.914062 189.691406 C 184.441406 190.6875 185.019531 191.652344 185.644531 192.585938 C 186.269531 193.523438 186.9375 194.425781 187.652344 195.296875 C 188.363281 196.167969 189.121094 197 189.914062 197.796875 C 190.710938 198.59375 191.542969 199.347656 192.410156 200.0625 C 193.28125 200.777344 194.183594 201.445312 195.117188 202.074219 C 196.050781 202.699219 197.015625 203.277344 198.007812 203.808594 C 198.996094 204.339844 200.011719 204.820312 201.050781 205.25 C 202.089844 205.679688 203.148438 206.058594 204.222656 206.386719 C 205.300781 206.714844 206.390625 206.988281 207.492188 207.207031 C 208.59375 207.425781 209.707031 207.589844 210.824219 207.703125 C 211.945312 207.8125 213.066406 207.867188 214.191406 207.867188 C 215.3125 207.867188 216.4375 207.8125 217.554688 207.703125 C 218.671875 207.589844 219.785156 207.425781 220.886719 207.207031 C 221.988281 206.988281 223.078125 206.714844 224.15625 206.386719 C 225.230469 206.058594 226.289062 205.679688 227.328125 205.25 C 228.367188 204.820312 229.382812 204.339844 230.371094 203.808594 C 231.363281 203.277344 232.328125 202.699219 233.261719 202.074219 C 234.195312 201.445312 235.097656 200.777344 235.96875 200.0625 C 236.835938 199.347656 237.667969 198.59375 238.464844 197.796875 C 239.257812 197 240.015625 196.167969 240.726562 195.296875 C 241.441406 194.425781 242.109375 193.523438 242.734375 192.585938 C 243.359375 191.652344 243.9375 190.6875 244.464844 189.691406 C 244.996094 188.699219 245.476562 187.683594 245.90625 186.644531 C 246.335938 185.601562 246.714844 184.542969 247.042969 183.464844 C 247.367188 182.390625 247.640625 181.296875 247.859375 180.195312 C 248.078125 179.089844 248.246094 177.976562 248.355469 176.855469 C 248.464844 175.734375 248.519531 174.613281 248.519531 173.488281 C 248.519531 172.359375 248.460938 171.238281 248.351562 170.117188 C 248.238281 169 248.070312 167.886719 247.851562 166.78125 C 247.632812 165.679688 247.355469 164.589844 247.03125 163.511719 C 246.703125 162.4375 246.324219 161.378906 245.890625 160.339844 C 245.460938 159.296875 244.980469 158.28125 244.449219 157.289062 C 243.921875 156.296875 243.34375 155.332031 242.71875 154.398438 C 242.09375 153.460938 241.425781 152.558594 240.710938 151.691406 C 239.996094 150.820312 239.242188 149.988281 238.449219 149.191406 C 237.65625 148.394531 236.824219 147.640625 235.953125 146.925781 C 235.085938 146.210938 234.183594 145.542969 233.25 144.917969 C 232.316406 144.289062 231.351562 143.710938 230.363281 143.179688 C 229.371094 142.648438 228.355469 142.167969 227.320312 141.738281 C 226.28125 141.304688 225.222656 140.925781 224.148438 140.597656 C 223.074219 140.269531 221.984375 139.996094 220.882812 139.777344 C 219.78125 139.554688 218.671875 139.386719 217.554688 139.277344 C 216.433594 139.164062 215.3125 139.109375 214.191406 139.105469 Z M 228.625 161.425781 C 228.625 161.71875 228.570312 162 228.457031 162.269531 C 228.347656 162.539062 228.1875 162.777344 227.980469 162.984375 C 227.773438 163.191406 227.535156 163.351562 227.265625 163.464844 C 226.996094 163.574219 226.71875 163.628906 226.425781 163.628906 C 226.132812 163.628906 225.851562 163.574219 225.582031 163.464844 C 225.3125 163.351562 225.074219 163.191406 224.867188 162.984375 C 224.664062 162.777344 224.503906 162.539062 224.390625 162.269531 C 224.28125 162 224.222656 161.71875 224.222656 161.425781 L 224.222656 158.871094 C 224.203125 158.464844 224.140625 158.0625 224.039062 157.667969 C 223.9375 157.273438 223.800781 156.890625 223.625 156.523438 C 223.449219 156.15625 223.238281 155.808594 222.996094 155.484375 C 222.753906 155.15625 222.480469 154.855469 222.179688 154.582031 C 221.875 154.308594 221.550781 154.070312 221.199219 153.859375 C 220.851562 153.652344 220.484375 153.476562 220.101562 153.339844 C 219.71875 153.203125 219.328125 153.105469 218.925781 153.042969 C 218.523438 152.984375 218.117188 152.960938 217.710938 152.980469 L 216.917969 152.980469 L 216.917969 171.933594 L 222.078125 173.699219 C 222.203125 173.746094 222.328125 173.804688 222.445312 173.875 C 226.496094 176.238281 228.625 179.164062 228.625 182.214844 L 228.625 187.730469 C 228.609375 188.429688 228.519531 189.121094 228.367188 189.800781 C 228.210938 190.480469 227.992188 191.140625 227.707031 191.777344 C 227.421875 192.414062 227.078125 193.015625 226.675781 193.585938 C 226.273438 194.15625 225.816406 194.679688 225.308594 195.15625 C 224.800781 195.636719 224.253906 196.058594 223.660156 196.429688 C 223.070312 196.796875 222.449219 197.105469 221.796875 197.351562 C 221.144531 197.601562 220.472656 197.78125 219.785156 197.894531 C 219.097656 198.007812 218.40625 198.050781 217.710938 198.027344 L 216.917969 198.027344 L 216.917969 199.792969 C 216.917969 200.085938 216.863281 200.367188 216.75 200.636719 C 216.640625 200.90625 216.480469 201.144531 216.273438 201.351562 C 216.066406 201.558594 215.828125 201.714844 215.558594 201.828125 C 215.289062 201.941406 215.007812 201.996094 214.71875 201.996094 C 214.425781 201.996094 214.144531 201.941406 213.875 201.828125 C 213.605469 201.714844 213.367188 201.558594 213.160156 201.351562 C 212.957031 201.144531 212.796875 200.90625 212.683594 200.636719 C 212.574219 200.367188 212.515625 200.085938 212.515625 199.792969 L 212.515625 198.027344 L 210.757812 198.027344 C 210.058594 198.058594 209.363281 198.019531 208.675781 197.914062 C 207.984375 197.808594 207.308594 197.632812 206.652344 197.390625 C 206 197.152344 205.371094 196.847656 204.777344 196.480469 C 204.179688 196.117188 203.625 195.695312 203.113281 195.21875 C 202.601562 194.746094 202.140625 194.222656 201.730469 193.65625 C 201.320312 193.089844 200.972656 192.488281 200.683594 191.851562 C 200.394531 191.214844 200.167969 190.554688 200.007812 189.875 C 199.847656 189.191406 199.757812 188.503906 199.734375 187.804688 L 199.734375 185.230469 C 199.734375 184.9375 199.792969 184.65625 199.902344 184.386719 C 200.015625 184.117188 200.175781 183.878906 200.378906 183.671875 C 200.585938 183.464844 200.824219 183.304688 201.09375 183.191406 C 201.363281 183.082031 201.644531 183.023438 201.9375 183.023438 C 202.226562 183.023438 202.507812 183.082031 202.777344 183.191406 C 203.046875 183.304688 203.285156 183.464844 203.492188 183.671875 C 203.699219 183.878906 203.859375 184.117188 203.96875 184.386719 C 204.082031 184.65625 204.136719 184.9375 204.136719 185.230469 L 204.136719 187.804688 C 204.15625 188.214844 204.214844 188.621094 204.3125 189.019531 C 204.414062 189.417969 204.550781 189.804688 204.726562 190.175781 C 204.902344 190.546875 205.109375 190.902344 205.355469 191.230469 C 205.597656 191.5625 205.871094 191.867188 206.175781 192.144531 C 206.480469 192.417969 206.808594 192.664062 207.160156 192.875 C 207.515625 193.089844 207.882812 193.261719 208.269531 193.402344 C 208.65625 193.542969 209.054688 193.640625 209.460938 193.703125 C 209.867188 193.761719 210.277344 193.78125 210.6875 193.761719 L 212.445312 193.761719 L 212.445312 175.039062 L 206.089844 172.761719 L 205.703125 172.585938 C 201.777344 170.242188 199.734375 167.472656 199.734375 164.371094 L 199.734375 158.871094 C 199.753906 158.171875 199.839844 157.480469 199.996094 156.800781 C 200.148438 156.121094 200.371094 155.460938 200.65625 154.820312 C 200.941406 154.183594 201.285156 153.582031 201.6875 153.011719 C 202.09375 152.441406 202.550781 151.917969 203.058594 151.441406 C 203.566406 150.960938 204.117188 150.535156 204.710938 150.167969 C 205.300781 149.796875 205.925781 149.492188 206.578125 149.246094 C 207.230469 149 207.902344 148.820312 208.589844 148.707031 C 209.277344 148.59375 209.972656 148.550781 210.667969 148.574219 L 212.429688 148.574219 L 212.429688 147.234375 C 212.429688 146.941406 212.484375 146.660156 212.597656 146.390625 C 212.707031 146.121094 212.867188 145.882812 213.074219 145.675781 C 213.28125 145.46875 213.519531 145.308594 213.789062 145.199219 C 214.058594 145.085938 214.335938 145.03125 214.628906 145.03125 C 214.921875 145.03125 215.203125 145.085938 215.472656 145.199219 C 215.742188 145.308594 215.980469 145.46875 216.1875 145.675781 C 216.390625 145.882812 216.550781 146.121094 216.664062 146.390625 C 216.773438 146.660156 216.832031 146.941406 216.832031 147.234375 L 216.832031 148.574219 L 217.621094 148.574219 C 218.320312 148.550781 219.011719 148.59375 219.699219 148.710938 C 220.386719 148.824219 221.054688 149.003906 221.707031 149.25 C 222.359375 149.496094 222.980469 149.804688 223.574219 150.171875 C 224.164062 150.542969 224.714844 150.96875 225.222656 151.445312 C 225.726562 151.925781 226.183594 152.449219 226.585938 153.015625 C 226.992188 153.585938 227.335938 154.1875 227.621094 154.828125 C 227.90625 155.464844 228.125 156.121094 228.277344 156.804688 C 228.433594 157.484375 228.519531 158.171875 228.539062 158.871094 Z M 228.625 161.425781 " fill-opacity="1" fill-rule="nonzero"/><path fill="#c3fffc" d="M 175.089844 102.574219 C 175.386719 102.578125 175.675781 102.527344 175.953125 102.414062 C 176.230469 102.300781 176.476562 102.136719 176.6875 101.921875 C 176.898438 101.710938 177.058594 101.464844 177.167969 101.1875 C 177.28125 100.90625 177.332031 100.617188 177.324219 100.316406 L 177.324219 98.554688 C 177.324219 94.007812 172.535156 90.425781 166.410156 90.425781 L 165.632812 90.425781 L 165.632812 90.058594 C 165.632812 89.765625 165.578125 89.484375 165.464844 89.214844 C 165.355469 88.945312 165.195312 88.707031 164.988281 88.5 C 164.785156 88.292969 164.546875 88.132812 164.277344 88.019531 C 164.007812 87.910156 163.726562 87.851562 163.433594 87.851562 C 163.140625 87.851562 162.859375 87.910156 162.589844 88.019531 C 162.320312 88.132812 162.082031 88.292969 161.878906 88.5 C 161.671875 88.707031 161.511719 88.945312 161.402344 89.214844 C 161.289062 89.484375 161.234375 89.765625 161.234375 90.058594 L 161.234375 90.425781 L 159.382812 90.425781 C 153.257812 90.425781 148.46875 93.953125 148.46875 98.554688 L 148.46875 102.574219 C 148.46875 106.507812 153.167969 108.535156 154.738281 109.203125 C 154.828125 109.257812 154.929688 109.292969 155.035156 109.308594 L 161.234375 110.933594 L 161.234375 123.378906 L 159.382812 123.378906 C 155.546875 123.378906 152.871094 121.421875 152.871094 119.675781 L 152.871094 117.738281 C 152.871094 117.445312 152.816406 117.164062 152.703125 116.894531 C 152.589844 116.625 152.433594 116.386719 152.226562 116.179688 C 152.019531 115.972656 151.78125 115.8125 151.511719 115.703125 C 151.242188 115.589844 150.960938 115.535156 150.667969 115.535156 C 150.378906 115.535156 150.097656 115.589844 149.828125 115.703125 C 149.558594 115.8125 149.320312 115.972656 149.113281 116.179688 C 148.90625 116.386719 148.75 116.625 148.636719 116.894531 C 148.523438 117.164062 148.46875 117.445312 148.46875 117.738281 L 148.46875 119.710938 C 148.46875 124.261719 153.257812 127.824219 159.382812 127.824219 L 161.234375 127.824219 L 161.234375 128.457031 C 161.234375 128.75 161.289062 129.03125 161.402344 129.300781 C 161.511719 129.570312 161.671875 129.808594 161.878906 130.015625 C 162.082031 130.222656 162.320312 130.382812 162.589844 130.492188 C 162.859375 130.605469 163.140625 130.660156 163.433594 130.660156 C 163.726562 130.660156 164.007812 130.605469 164.277344 130.492188 C 164.546875 130.382812 164.785156 130.222656 164.988281 130.015625 C 165.195312 129.808594 165.355469 129.570312 165.464844 129.300781 C 165.578125 129.03125 165.632812 128.75 165.632812 128.457031 L 165.632812 127.824219 L 166.410156 127.824219 C 172.535156 127.824219 177.324219 124.296875 177.324219 119.710938 L 177.324219 115.585938 C 177.324219 112.960938 175.160156 110.683594 170.898438 108.871094 C 170.804688 108.816406 170.707031 108.78125 170.597656 108.761719 L 165.632812 107.457031 L 165.632812 94.78125 L 166.410156 94.78125 C 170.246094 94.78125 172.921875 96.738281 172.921875 98.503906 L 172.921875 100.316406 C 172.914062 100.613281 172.964844 100.894531 173.070312 101.167969 C 173.179688 101.445312 173.332031 101.6875 173.535156 101.898438 C 173.738281 102.109375 173.976562 102.273438 174.246094 102.390625 C 174.515625 102.507812 174.792969 102.570312 175.089844 102.574219 Z M 169.277344 112.976562 C 172.234375 114.28125 172.886719 115.394531 172.886719 115.585938 L 172.886719 119.710938 C 172.886719 121.476562 170.210938 123.414062 166.375 123.414062 L 165.597656 123.414062 L 165.597656 112.023438 Z M 161.234375 106.3125 L 156.320312 105.042969 C 153.488281 103.792969 152.800781 102.804688 152.800781 102.523438 L 152.800781 98.554688 C 152.800781 96.792969 155.476562 94.835938 159.3125 94.835938 L 161.164062 94.835938 Z M 161.234375 106.3125 " fill-opacity="1" fill-rule="nonzero"/></svg>